<svg xmlns="http://www.w3.org/2000/svg" width="2480" height="3508" viewBox="0 0 2337.84 1728.59" shape-rendering="geometricPrecision" text-rendering="geometricPrecision" image-rendering="optimizeQuality" fill-rule="evenodd" clip-rule="evenodd"><defs><style type="text/css"><![CDATA[
    .fil0 {fill:#FEFEFE}
   ]]></style></defs><g id="Layer_x0020_1"><path class="fil0" d="M469.61 1135.34h566.59v281.28h285.85V562.556H1036.2v281.28H755.46v-281.28H469.61zM1347.57 1728.59h285.85v-281.28h280.75v281.28h285.85v-557.45l-15.32-15.34h-551.28V874.52h-285.85zM158.238 1728.59h285.85v-281.28H724.83v281.28h285.848v-557.45l-15.313-15.34h-551.28V874.52h-285.85zM0 961.462l76.567 40.913 484.923-874.52L778.807 247.66c167.804 99.718 372.914 202.42 540.296 302.51 18.377 10.99 33.965 18.964 52.42 29.307 109.022 61.1 285.106 154.29 380.29 212.23 65.933 40.136 151.78 82.162 216.347 120.772L2297 1094.43l40.838-86.94c-23.294-5.437-139.88-75.17-168.678-91.824l-55.89-30.944c-73.44-37.997-156.196-90.462-226.34-126.107-20.21-10.27-35.666-19.43-56.06-30.776-19.053-10.603-37.294-20.282-55.513-31.323-109.91-66.607-337.794-189.31-451.73-253.16l-367.4-204.692C861.763 188.178 677.94 85.453 589.962 32.845L530.864 0c-21.11 39.97-43.98 79.415-66.127 117.856L263.806 479.1c-45.434 81.966-88.7 157.465-132.786 240.295C113.81 751.728 6.82 932.135 0 961.46z"/></g></svg>